<svg xmlns="http://www.w3.org/2000/svg" viewBox="0 0 24 24">
  <rect x="0.75" y="0.75" width="22.5" height="22.5" rx="5.5" fill="#0f766e" />
  <g fill="#ffffff">
    <circle cx="5.2" cy="5.2" r="1.05" opacity="0.4" />
    <circle cx="18.8" cy="5.2" r="1.05" opacity="0.4" />
    <circle cx="5.2" cy="18.8" r="1.05" opacity="0.4" />
    <circle cx="18.8" cy="18.8" r="1.05" opacity="0.4" />
    <circle cx="12" cy="7" r="2.4" />
    <path d="M12 9.6C10.4 9.6 9.7 10.7 9.7 11.7L6.9 12.9C6.1 13.2 6.1 14.3 6.9 14.6L9.6 15.6C9.1 16.6 8.2 17.7 7.8 18.9C7.5 19.7 8.1 20.5 9 20.5L10.2 20.5C10.8 20.5 11.3 20.1 11.4 19.5L12 17.9L12.6 19.5C12.7 20.1 13.2 20.5 13.8 20.5L15 20.5C15.9 20.5 16.5 19.7 16.2 18.9C15.8 17.7 14.9 16.6 14.4 15.6L17.1 14.6C17.9 14.3 17.9 13.2 17.1 12.9L14.3 11.7C14.3 10.7 13.6 9.6 12 9.6Z" />
  </g>
</svg>
